<?xml version="1.0" encoding="utf-8"?>
<!-- Generator: Adobe Illustrator 21.1.0, SVG Export Plug-In . SVG Version: 6.00 Build 0)  -->
<svg version="1.1" id="Layer_1" xmlns="http://www.w3.org/2000/svg" xmlns:xlink="http://www.w3.org/1999/xlink" x="0px" y="0px"
	 viewBox="0 0 42 42" style="enable-background:new 0 0 42 42;" xml:space="preserve">
<style type="text/css">
	.st0{fill:#FFB532;}
</style>
<title>snare</title>
<g id="Layer_2">
	<g id="content">
		<path class="st0" d="M38.2,15v-3c0-4.1-8.6-6.2-16.8-6.2S4.8,7.9,4.8,12v3c0,0.8,0.4,1.6,1,2.2v6.6c-0.6,0.6-1,1.4-1,2.2v3
			c0,4.1,8.6,6.2,16.8,6.2s16.8-2.2,16.8-6.2v-3c0-0.8-0.4-1.6-1-2.2v-6.6C37.9,16.6,38.2,15.8,38.2,15z M21.5,7.2
			c9,0,15.2,2.5,15.2,4.8c0,0.1,0,0.2,0,0.3c-2.6-2.2-8.5-3.5-15.2-3.5S8.9,10.1,6.3,12.3c0-0.1,0-0.2-0.1-0.3
			C6.2,9.8,12.5,7.2,21.5,7.2z M35.8,13.5c-2,1.7-7.4,3.2-14.3,3.2S9.2,15.2,7.2,13.5c2-1.7,7.3-3.3,14.3-3.3S33.8,11.8,35.8,13.5z
			 M6.2,14.7c2.8,2.3,9.2,3.5,15.2,3.5s12.4-1.2,15.2-3.5V15c0,2.2-6.3,4.8-15.2,4.8S6.2,17.2,6.2,15V14.7z M27.8,22.9
			c-0.6,0.3-1,0.9-1,1.6v2c0,0.7,0.4,1.3,1,1.6v2.2c-2.1,0.3-4.2,0.5-6.2,0.5c-2.1,0-4.2-0.1-6.2-0.5v-2.2c0.6-0.3,1-0.9,1-1.6v-2
			c0-0.7-0.4-1.3-1-1.6v-2.1c2.1,0.3,4.2,0.4,6.2,0.4c2.1,0,4.2-0.1,6.2-0.4V22.9z M13.8,20.6v2.4c-0.6,0.3-1,0.9-1,1.6v2
			c0,0.7,0.4,1.3,1,1.6v2c-2.3-0.3-4.6-1.2-6.5-2.5v-9.2C9.3,19.5,11.5,20.2,13.8,20.6z M21.5,33.8c-9,0-15.2-2.5-15.2-4.8v-0.3
			c2.6,2.2,8.5,3.6,15.2,3.6s12.6-1.4,15.2-3.6V29C36.8,31.2,30.5,33.8,21.5,33.8z M35.8,22.4v5.2c-2,1.3-4.2,2.1-6.5,2.4v-2
			c0.6-0.3,1-0.9,1-1.6v-2c0-0.7-0.4-1.3-1-1.6v-2.3c2.3-0.4,4.5-1.1,6.5-2.2V22.4z"/>
	</g>
</g>
</svg>
