<?xml version="1.0" encoding="utf-8"?>
<!-- Generator: Adobe Illustrator 21.1.0, SVG Export Plug-In . SVG Version: 6.00 Build 0)  -->
<svg version="1.1" id="Layer_1" xmlns="http://www.w3.org/2000/svg" xmlns:xlink="http://www.w3.org/1999/xlink" x="0px" y="0px"
	 viewBox="0 0 41 41" style="enable-background:new 0 0 41 41;" xml:space="preserve">
<style type="text/css">
	.st0{fill:#FFB532;}
	.st1{fill:none;}
</style>
<path class="st0" d="M37.2,15v-3c0-4.1-8.6-6.2-16.8-6.2S3.8,7.9,3.8,12v3c0,0.8,0.4,1.6,1,2.2v4.6c-0.6,0.6-1,1.4-1,2.2v3
	c0,4.1,8.6,6.2,16.8,6.2s16.8-2.2,16.8-6.2v-3c0-0.8-0.4-1.6-1-2.2v-4.6C36.9,16.6,37.2,15.8,37.2,15z M20.5,7.2
	c9,0,15.2,2.5,15.2,4.8c0,0.1,0,0.2,0,0.3c-2.6-2.2-8.5-3.5-15.2-3.5S7.9,10.1,5.3,12.3c0-0.1,0-0.2-0.1-0.3
	C5.2,9.7,11.5,7.2,20.5,7.2z M34.8,13.5c-2,1.7-7.4,3.2-14.3,3.2S8.2,15.2,6.2,13.5c2-1.7,7.3-3.3,14.3-3.3S32.8,11.8,34.8,13.5z
	 M5.2,14.7c2.8,2.3,9.2,3.5,15.2,3.5s12.4-1.2,15.2-3.5V15c0,2.2-6.3,4.7-15.2,4.7S5.2,17.2,5.2,15V14.7z M20.5,28.7
	c-2.1,0-4.2-0.1-6.2-0.5v-7.4c2.1,0.3,4.2,0.4,6.2,0.4c2.1,0,4.2-0.1,6.2-0.4v7.5C24.7,28.6,22.6,28.8,20.5,28.7L20.5,28.7z
	 M12.8,20.5V28c-2.3-0.3-4.6-1.2-6.5-2.5v-7.1C8.3,19.5,10.5,20.2,12.8,20.5L12.8,20.5z M20.5,31.7c-9,0-15.2-2.5-15.2-4.8v-0.3
	c2.6,2.2,8.5,3.6,15.2,3.6s12.6-1.4,15.2-3.6V27C35.8,29.2,29.5,31.7,20.5,31.7z M34.8,25.6c-2,1.3-4.2,2.1-6.5,2.4v-7.4
	c2.3-0.4,4.5-1.1,6.5-2.2V25.6z"/>
<rect y="0" class="st1" width="41" height="41"/>
</svg>
