<?xml version="1.0" encoding="utf-8"?>
<!-- Generator: Adobe Illustrator 21.1.0, SVG Export Plug-In . SVG Version: 6.00 Build 0)  -->
<svg version="1.1" id="Layer_1" xmlns="http://www.w3.org/2000/svg" xmlns:xlink="http://www.w3.org/1999/xlink" x="0px" y="0px"
	 viewBox="0 0 41 41" style="enable-background:new 0 0 41 41;" xml:space="preserve">
<style type="text/css">
	.st0{fill:#FFB532;}
	.st1{fill:none;}
</style>
<path class="st0" d="M40.2,19.6c0-7.8-4.7-15.6-10.5-17.5c-1.5-0.5-3.2-0.5-4.7,0l-18,6c-0.7,0.2-1.4,0.6-2,1
	c-2.7,2-4.2,5.7-4.2,10.2c0,6,2.8,11.9,6.6,15.3l-3.2,3.1l3.7,1.8l9.6-3.1l15.8-5.3l2.1,5.6l1.4-0.5l-2.1-5.6
	C38.1,29,40.2,24.8,40.2,19.6z M2.2,19.4c0-4,1.3-7.3,3.6-9l0.1-0.1c-1.5,2.4-2.3,5.2-2.2,8c0,5.3,2,10.4,5.6,14.3l-0.9,0.9
	C4.8,30.6,2.2,25,2.2,19.4z M8,37.9l-1.2-0.6l3.1-3l2.2,1.2L8,37.9z M17.1,34.6l-0.2,0.1c-0.8,0-1.5-0.1-2.2-0.3
	c-0.9-0.3-1.7-0.7-2.5-1.2v-7.9h1v-3.5H9.8v3.5h1V32c-3.5-3.6-5.5-8.5-5.5-13.6c0-4,1.3-7.3,3.6-9L9,9.3h0.2c0.7,0,1.4,0.1,2,0.3
	c5.2,1.6,9.5,8.8,9.5,16C20.8,29.7,19.4,32.9,17.1,34.6L17.1,34.6z M20.1,33.6L20.1,33.6c1.4-2.3,2.2-5.1,2.1-8
	c0-7.7-4.6-15.4-10.2-17.4h0.2c0.7,0,1.4,0.1,2,0.3c5.2,1.6,9.5,8.8,9.5,16C23.8,28.7,22.4,31.9,20.1,33.6L20.1,33.6z M33.7,28
	l-1-2.6l-1.4,0.5l1.3,3.4c-0.6,0.5-1.3,0.9-2,1.2L22.8,33c1.7-2.5,2.5-5.4,2.4-8.4c0-7.8-4.7-15.6-10.5-17.5l0,0l7.8-2.6
	c1.2-0.4,2.6-0.4,3.8,0c5.2,1.6,9.5,8.8,9.5,16C35.9,23.2,35.1,25.8,33.7,28z M35.1,28.6c1.5-2.4,2.2-5.2,2.1-8
	c0-7.7-4.5-15.3-10.2-17.4c0.7,0,1.5,0.1,2.2,0.3c5.2,1.6,9.5,8.8,9.5,16.1C38.8,23.6,37.4,26.9,35.1,28.6L35.1,28.6z"/>
<rect y="0" class="st1" width="41" height="41"/>
</svg>
