<?xml version="1.0" encoding="utf-8"?>
<!-- Generator: Adobe Illustrator 21.1.0, SVG Export Plug-In . SVG Version: 6.00 Build 0)  -->
<svg version="1.1" id="Layer_1" xmlns="http://www.w3.org/2000/svg" xmlns:xlink="http://www.w3.org/1999/xlink" x="0px" y="0px"
	 viewBox="0 0 42 42" style="enable-background:new 0 0 42 42;" xml:space="preserve">
<style type="text/css">
	.st0{fill:#FFB532;}
</style>
<title>kick</title>
<g id="Layer_2">
	<g id="content">
		<rect x="10.8" y="21.8" class="st0" width="3.5" height="3.5"/>
		<path class="st0" d="M41.2,19.6c0-7.8-4.7-15.6-10.5-17.5c-1.5-0.5-3.2-0.5-4.7,0l0,0l-18,6l0,0c-0.7,0.2-1.4,0.6-2,1
			c-2.7,2-4.2,5.7-4.2,10.2c0,6,2.8,11.9,6.6,15.2l-3.2,3.1l3.7,1.8l8.1-2.6l0,0l1.4-0.5h0.1l0,0l15.8-5.3l2.1,5.6l1.4-0.5l-2.1-5.6
			C39.1,29,41.2,24.8,41.2,19.6z M3.2,19.4c0-4,1.3-7.3,3.6-9l0.1-0.1c-1.5,2.4-2.3,5.2-2.2,8.1c0,5.3,2,10.4,5.6,14.3l-0.9,0.9
			C5.8,30.6,3.2,25,3.2,19.4z M7.8,37.3l3.7-3.6c0.7,0.6,1.4,1.1,2.2,1.5l-2.9,2.1L9,37.9L7.8,37.3z M18.1,34.6L18,34.8
			c-0.8,0-1.5-0.1-2.2-0.3c-0.9-0.3-1.7-0.7-2.5-1.2V23h-1.5v9c-3.5-3.6-5.5-8.5-5.5-13.6c0-4,1.3-7.3,3.6-9L10,9.3h0.2
			c0.7,0,1.4,0.1,2,0.3c5.2,1.6,9.5,8.8,9.5,16C21.8,29.7,20.4,32.9,18.1,34.6z M21.1,33.6L21.1,33.6c1.4-2.3,2.2-5.1,2.1-8
			c0-7.7-4.5-15.4-10.2-17.4h0.2c0.7,0,1.4,0.1,2,0.3c5.2,1.6,9.5,8.8,9.5,16C24.8,28.7,23.4,31.9,21.1,33.6z M34.7,28l-1-2.6
			l-1.4,0.5l1.3,3.4c-0.6,0.5-1.3,0.9-2,1.2L23.8,33c1.7-2.5,2.5-5.4,2.4-8.4c0-7.8-4.7-15.6-10.5-17.5l0,0l7.8-2.6
			c1.2-0.4,2.6-0.4,3.8,0c5.2,1.6,9.5,8.8,9.5,16C36.9,23.2,36.1,25.8,34.7,28z M36.1,28.6c1.5-2.4,2.2-5.2,2.1-8
			c0-7.7-4.5-15.3-10.2-17.4c0.7,0,1.5,0.1,2.2,0.3c5.2,1.6,9.5,8.8,9.5,16.1C39.8,23.6,38.4,27,36.1,28.6L36.1,28.6z"/>
	</g>
</g>
</svg>
